<svg width="480" height="481" viewBox="0 0 480 481" fill="none" xmlns="http://www.w3.org/2000/svg">
<path d="M200 72H216V88H200V72Z" fill="white"/>
<path d="M408 264H424V280H408V264Z" fill="white"/>
<path d="M264 392H280V408H264V392Z" fill="white"/>
<path d="M200 416H216V432H200V416Z" fill="white"/>
<path d="M72 232H88V248H72V232Z" fill="white"/>
<path d="M264 72H280V88H264V72Z" fill="white"/>
<path d="M392 200H408V216H392V200Z" fill="white"/>
<path d="M352 120H368V136H352V120Z" fill="white"/>
<path d="M112 120H128V136H112V120Z" fill="white"/>
<path d="M352 344H368V360H352V344Z" fill="white"/>
<path d="M112 344H128V360H112V344Z" fill="white"/>
<path d="M239.056 232C233.461 232.181 228.106 234.315 223.921 238.033C219.736 241.751 216.985 246.817 216.147 252.352C215.308 257.887 216.435 263.54 219.331 268.331C222.227 273.121 226.71 276.746 232 278.576V296H248V278.52C253.42 276.622 257.977 272.839 260.841 267.86C263.704 262.882 264.683 257.041 263.599 251.401C262.515 245.762 259.439 240.699 254.934 237.138C250.429 233.577 244.794 231.753 239.056 232ZM248 255.688C248.042 256.738 247.876 257.786 247.513 258.772C247.15 259.758 246.595 260.663 245.882 261.435C245.169 262.207 244.311 262.831 243.356 263.271C242.402 263.711 241.37 263.959 240.32 264C239.268 264.041 238.219 263.874 237.232 263.509C236.245 263.144 235.34 262.588 234.568 261.872C233.405 260.798 232.587 259.404 232.217 257.865C231.846 256.327 231.941 254.713 232.488 253.228C233.035 251.743 234.011 250.453 235.291 249.523C236.571 248.592 238.099 248.062 239.68 248H240C242.067 247.998 244.055 248.797 245.547 250.229C247.038 251.661 247.917 253.614 248 255.68V255.688Z" fill="white"/>
<path d="M280 209.472V200C280 189.391 275.786 179.217 268.284 171.716C260.783 164.214 250.609 160 240 160C229.391 160 219.217 164.214 211.716 171.716C204.214 179.217 200 189.391 200 200V209.472C195.337 211.121 191.297 214.17 188.433 218.202C185.569 222.235 184.021 227.054 184 232V296C184 302.365 186.529 308.47 191.029 312.971C195.53 317.471 201.635 320 208 320H272C278.365 320 284.47 317.471 288.971 312.971C293.471 308.47 296 302.365 296 296V232C295.979 227.054 294.431 222.235 291.567 218.202C288.703 214.17 284.663 211.121 280 209.472V209.472ZM216 200C216 193.635 218.529 187.53 223.029 183.029C227.53 178.529 233.635 176 240 176C246.365 176 252.47 178.529 256.971 183.029C261.471 187.53 264 193.635 264 200V208H216V200ZM280 296C280 298.122 279.157 300.157 277.657 301.657C276.157 303.157 274.122 304 272 304H208C205.878 304 203.843 303.157 202.343 301.657C200.843 300.157 200 298.122 200 296V232C200 229.878 200.843 227.843 202.343 226.343C203.843 224.843 205.878 224 208 224H272C274.122 224 276.157 224.843 277.657 226.343C279.157 227.843 280 229.878 280 232V296Z" fill="white"/>
<path d="M456 312C452.436 312.014 448.922 312.834 445.72 314.4L427.32 296H352V280H392V264H352V248H393.888L439.384 225.248C443.371 229.067 448.556 231.392 454.06 231.828C459.564 232.264 465.05 230.785 469.589 227.641C474.128 224.498 477.442 219.882 478.969 214.577C480.497 209.271 480.144 203.6 477.971 198.524C475.798 193.448 471.938 189.279 467.044 186.722C462.151 184.165 456.524 183.377 451.116 184.492C445.709 185.606 440.852 188.555 437.369 192.839C433.885 197.123 431.989 202.479 432 208C432.038 208.973 432.136 209.943 432.296 210.904L390.112 232H352V216H376V200H352V184H387.312L413.712 157.6C416.916 159.167 420.433 159.987 424 160C428.747 160 433.387 158.592 437.334 155.955C441.28 153.318 444.357 149.57 446.173 145.184C447.99 140.799 448.465 135.973 447.539 131.318C446.613 126.662 444.327 122.386 440.971 119.029C437.614 115.673 433.338 113.387 428.682 112.461C424.027 111.535 419.201 112.01 414.816 113.827C410.43 115.643 406.682 118.72 404.045 122.666C401.408 126.613 400 131.253 400 136C400.014 139.564 400.834 143.078 402.4 146.28L380.688 168H352C351.987 157.395 347.769 147.228 340.27 139.73C332.772 132.231 322.605 128.013 312 128V107.312L357.72 61.6C360.922 63.1657 364.436 63.9862 368 64C372.747 64 377.387 62.5924 381.334 59.9553C385.28 57.3181 388.357 53.5698 390.173 49.1844C391.99 44.799 392.465 39.9734 391.539 35.3178C390.613 30.6623 388.327 26.3859 384.971 23.0294C381.614 19.673 377.338 17.3872 372.682 16.4612C368.027 15.5351 363.201 16.0104 358.816 17.8269C354.43 19.6434 350.682 22.7195 348.045 26.6663C345.408 30.6131 344 35.2533 344 40C344.014 43.5639 344.834 47.0784 346.4 50.28L296 100.68V128H280V104H264V128H248V70.528C253.338 68.6408 257.836 64.9275 260.701 60.0442C263.566 55.1609 264.612 49.4221 263.654 43.8421C262.697 38.2622 259.798 33.2003 255.469 29.5512C251.141 25.902 245.662 23.9006 240 23.9006C234.339 23.9006 228.859 25.902 224.531 29.5512C220.202 33.2003 217.303 38.2622 216.346 43.8421C215.388 49.4221 216.434 55.1609 219.299 60.0442C222.164 64.9275 226.662 68.6408 232 70.528V128H216V104H200V128H184V68.688L149.6 34.288C151.167 31.084 151.987 27.5666 152 24C152 19.2533 150.592 14.6131 147.955 10.6663C145.318 6.71955 141.57 3.64341 137.184 1.8269C132.799 0.0103989 127.973 -0.464881 123.318 0.461164C118.662 1.38721 114.386 3.67299 111.029 7.02945C107.673 10.3859 105.387 14.6623 104.461 19.3178C103.535 23.9734 104.01 28.799 105.827 33.1844C107.643 37.5698 110.72 41.3181 114.666 43.9553C118.613 46.5924 123.253 48 128 48C131.564 47.9862 135.078 47.1657 138.28 45.6L168 75.312V128C157.395 128.013 147.228 132.231 139.73 139.73C132.231 147.228 128.013 157.395 128 168H99.312L77.6 146.28C79.1657 143.078 79.9862 139.564 80 136C80 131.253 78.5924 126.613 75.9553 122.666C73.3181 118.72 69.5698 115.643 65.1844 113.827C60.799 112.01 55.9734 111.535 51.3178 112.461C46.6623 113.387 42.3859 115.673 39.0294 119.029C35.673 122.386 33.3872 126.662 32.4612 131.318C31.5351 135.973 32.0104 140.799 33.8269 145.184C35.6434 149.57 38.7195 153.318 42.6663 155.955C46.6131 158.592 51.2533 160 56 160C59.5639 159.986 63.0784 159.166 66.28 157.6L92.68 184H128V200H77.104L35.2 234.912C31.7658 233.028 27.917 232.027 24 232C19.2533 232 14.6131 233.408 10.6663 236.045C6.71955 238.682 3.64341 242.43 1.8269 246.816C0.0103989 251.201 -0.464881 256.027 0.461164 260.682C1.38721 265.338 3.67299 269.614 7.02945 272.971C10.3859 276.327 14.6623 278.613 19.3178 279.539C23.9734 280.465 28.799 279.99 33.1844 278.173C37.5698 276.357 41.3181 273.28 43.9553 269.334C46.5924 265.387 48 260.747 48 256C48.0054 252.789 47.3604 249.611 46.104 246.656L82.896 216H128V232H104V248H128V264H56V280H128V296H83.72L51.48 344.352C50.3302 344.149 49.1671 344.032 48 344C42.4344 343.949 37.021 345.816 32.6702 349.287C28.3194 352.758 25.2967 357.622 24.1103 363.06C22.924 368.498 23.6465 374.178 26.1563 379.146C28.666 384.114 32.81 388.066 37.8911 390.338C42.9723 392.609 48.6807 393.062 54.0564 391.619C59.432 390.177 64.1469 386.927 67.408 382.416C70.6692 377.906 72.2776 372.41 71.9629 366.853C71.6482 361.296 69.4295 356.017 65.68 351.904L92.28 312H128C128.013 322.605 132.231 332.772 139.73 340.27C147.228 347.769 157.395 351.987 168 352V404.688L138.28 434.4C135.078 432.834 131.564 432.014 128 432C123.253 432 118.613 433.408 114.666 436.045C110.72 438.682 107.643 442.43 105.827 446.816C104.01 451.201 103.535 456.027 104.461 460.682C105.387 465.338 107.673 469.614 111.029 472.971C114.386 476.327 118.662 478.613 123.318 479.539C127.973 480.465 132.799 479.99 137.184 478.173C141.57 476.357 145.318 473.28 147.955 469.334C150.592 465.387 152 460.747 152 456C151.986 452.436 151.166 448.922 149.6 445.72L184 411.32V352H200V400H216V352H232V420.432L280.592 450.832C279.286 456.437 280.007 462.323 282.628 467.447C285.249 472.571 289.599 476.601 294.908 478.822C300.217 481.044 306.141 481.313 311.63 479.583C317.119 477.853 321.817 474.235 324.893 469.37C327.968 464.506 329.221 458.709 328.429 453.009C327.638 447.309 324.853 442.073 320.569 438.23C316.285 434.387 310.779 432.186 305.026 432.016C299.274 431.847 293.647 433.72 289.144 437.304L248 411.568V352H264V376H280V352H296V416H353.472C355.359 421.338 359.073 425.836 363.956 428.701C368.839 431.566 374.578 432.612 380.158 431.654C385.738 430.697 390.8 427.798 394.449 423.469C398.098 419.141 400.099 413.661 400.099 408C400.099 402.339 398.098 396.859 394.449 392.531C390.8 388.202 385.738 385.303 380.158 384.346C374.578 383.388 368.839 384.434 363.956 387.299C359.073 390.164 355.359 394.662 353.472 400H312V352C322.605 351.987 332.772 347.769 340.27 340.27C347.769 332.772 351.987 322.605 352 312H420.688L434.4 325.72C432.834 328.922 432.014 332.436 432 336C432 340.747 433.408 345.387 436.045 349.334C438.682 353.28 442.43 356.357 446.816 358.173C451.201 359.99 456.027 360.465 460.682 359.539C465.338 358.613 469.614 356.327 472.971 352.971C476.327 349.614 478.613 345.338 479.539 340.682C480.465 336.027 479.99 331.201 478.173 326.816C476.357 322.43 473.28 318.682 469.334 316.045C465.387 313.408 460.747 312 456 312V312ZM456 200C457.582 200 459.129 200.469 460.445 201.348C461.76 202.227 462.786 203.477 463.391 204.939C463.997 206.4 464.155 208.009 463.846 209.561C463.538 211.113 462.776 212.538 461.657 213.657C460.538 214.776 459.113 215.538 457.561 215.846C456.009 216.155 454.4 215.997 452.939 215.391C451.477 214.786 450.227 213.76 449.348 212.445C448.469 211.129 448 209.582 448 208C448 205.878 448.843 203.843 450.343 202.343C451.843 200.843 453.878 200 456 200ZM424 128C425.582 128 427.129 128.469 428.445 129.348C429.76 130.227 430.786 131.477 431.391 132.939C431.997 134.4 432.155 136.009 431.846 137.561C431.538 139.113 430.776 140.538 429.657 141.657C428.538 142.776 427.113 143.538 425.561 143.846C424.009 144.155 422.4 143.997 420.939 143.391C419.477 142.786 418.227 141.76 417.348 140.445C416.469 139.129 416 137.582 416 136C416 133.878 416.843 131.843 418.343 130.343C419.843 128.843 421.878 128 424 128ZM368 32C369.582 32 371.129 32.4692 372.445 33.3483C373.76 34.2273 374.786 35.4767 375.391 36.9385C375.997 38.4004 376.155 40.0089 375.846 41.5607C375.538 43.1126 374.776 44.538 373.657 45.6569C372.538 46.7757 371.113 47.5376 369.561 47.8463C368.009 48.155 366.4 47.9965 364.939 47.391C363.477 46.7855 362.227 45.7602 361.348 44.4446C360.469 43.129 360 41.5823 360 40C360 37.8783 360.843 35.8434 362.343 34.3432C363.843 32.8429 365.878 32 368 32V32ZM240 40C241.582 40 243.129 40.4692 244.445 41.3483C245.76 42.2273 246.786 43.4767 247.391 44.9385C247.997 46.4004 248.155 48.0089 247.846 49.5607C247.538 51.1126 246.776 52.538 245.657 53.6569C244.538 54.7757 243.113 55.5376 241.561 55.8463C240.009 56.155 238.4 55.9965 236.939 55.391C235.477 54.7855 234.227 53.7602 233.348 52.4446C232.469 51.129 232 49.5823 232 48C232 45.8783 232.843 43.8434 234.343 42.3432C235.843 40.8429 237.878 40 240 40V40ZM120 24C120 22.4178 120.469 20.871 121.348 19.5555C122.227 18.2399 123.477 17.2145 124.939 16.609C126.4 16.0035 128.009 15.845 129.561 16.1537C131.113 16.4624 132.538 17.2243 133.657 18.3432C134.776 19.462 135.538 20.8874 135.846 22.4393C136.155 23.9911 135.997 25.5997 135.391 27.0615C134.786 28.5233 133.76 29.7727 132.445 30.6518C131.129 31.5308 129.582 32 128 32C125.878 32 123.843 31.1572 122.343 29.6569C120.843 28.1566 120 26.1217 120 24ZM48 136C48 134.418 48.4692 132.871 49.3483 131.555C50.2273 130.24 51.4767 129.214 52.9385 128.609C54.4004 128.003 56.0089 127.845 57.5607 128.154C59.1126 128.462 60.538 129.224 61.6569 130.343C62.7757 131.462 63.5376 132.887 63.8463 134.439C64.155 135.991 63.9965 137.6 63.391 139.061C62.7855 140.523 61.7602 141.773 60.4446 142.652C59.129 143.531 57.5823 144 56 144C53.8783 144 51.8434 143.157 50.3432 141.657C48.8429 140.157 48 138.122 48 136ZM24 264C22.4178 264 20.871 263.531 19.5555 262.652C18.2399 261.773 17.2145 260.523 16.609 259.061C16.0035 257.6 15.845 255.991 16.1537 254.439C16.4624 252.887 17.2243 251.462 18.3432 250.343C19.462 249.224 20.8874 248.462 22.4393 248.154C23.9911 247.845 25.5997 248.003 27.0615 248.609C28.5233 249.214 29.7727 250.24 30.6518 251.555C31.5308 252.871 32 254.418 32 256C32 258.122 31.1572 260.157 29.6569 261.657C28.1566 263.157 26.1217 264 24 264ZM48 376C46.4178 376 44.871 375.531 43.5555 374.652C42.2399 373.773 41.2145 372.523 40.609 371.061C40.0035 369.6 39.845 367.991 40.1537 366.439C40.4624 364.887 41.2243 363.462 42.3432 362.343C43.462 361.224 44.8874 360.462 46.4393 360.154C47.9911 359.845 49.5997 360.003 51.0615 360.609C52.5233 361.214 53.7727 362.24 54.6518 363.555C55.5308 364.871 56 366.418 56 368C56 370.122 55.1572 372.157 53.6569 373.657C52.1566 375.157 50.1217 376 48 376V376ZM128 464C126.418 464 124.871 463.531 123.555 462.652C122.24 461.773 121.214 460.523 120.609 459.061C120.003 457.6 119.845 455.991 120.154 454.439C120.462 452.887 121.224 451.462 122.343 450.343C123.462 449.224 124.887 448.462 126.439 448.154C127.991 447.845 129.6 448.003 131.061 448.609C132.523 449.214 133.773 450.24 134.652 451.555C135.531 452.871 136 454.418 136 456C136 458.122 135.157 460.157 133.657 461.657C132.157 463.157 130.122 464 128 464ZM304 448C305.582 448 307.129 448.469 308.445 449.348C309.76 450.227 310.786 451.477 311.391 452.939C311.997 454.4 312.155 456.009 311.846 457.561C311.538 459.113 310.776 460.538 309.657 461.657C308.538 462.776 307.113 463.538 305.561 463.846C304.009 464.155 302.4 463.997 300.939 463.391C299.477 462.786 298.227 461.76 297.348 460.445C296.469 459.129 296 457.582 296 456C296 453.878 296.843 451.843 298.343 450.343C299.843 448.843 301.878 448 304 448ZM376 400C377.582 400 379.129 400.469 380.445 401.348C381.76 402.227 382.786 403.477 383.391 404.939C383.997 406.4 384.155 408.009 383.846 409.561C383.538 411.113 382.776 412.538 381.657 413.657C380.538 414.776 379.113 415.538 377.561 415.846C376.009 416.155 374.4 415.997 372.939 415.391C371.477 414.786 370.227 413.76 369.348 412.445C368.469 411.129 368 409.582 368 408C368 405.878 368.843 403.843 370.343 402.343C371.843 400.843 373.878 400 376 400ZM336 312C336 318.365 333.471 324.47 328.971 328.971C324.47 333.471 318.365 336 312 336H168C161.635 336 155.53 333.471 151.029 328.971C146.529 324.47 144 318.365 144 312V168C144 161.635 146.529 155.53 151.029 151.029C155.53 146.529 161.635 144 168 144H312C318.365 144 324.47 146.529 328.971 151.029C333.471 155.53 336 161.635 336 168V312ZM456 344C454.418 344 452.871 343.531 451.555 342.652C450.24 341.773 449.214 340.523 448.609 339.061C448.003 337.6 447.845 335.991 448.154 334.439C448.462 332.887 449.224 331.462 450.343 330.343C451.462 329.224 452.887 328.462 454.439 328.154C455.991 327.845 457.6 328.003 459.061 328.609C460.523 329.214 461.773 330.24 462.652 331.555C463.531 332.871 464 334.418 464 336C464 338.122 463.157 340.157 461.657 341.657C460.157 343.157 458.122 344 456 344Z" fill="white"/>
</svg>
