<svg width="469" height="469" viewBox="0 0 469 469" fill="none" xmlns="http://www.w3.org/2000/svg">
<g clip-path="url(#clip0)">
<path d="M296.039 256.112V298.555C296.039 307.083 282.787 314.491 263.333 318.228C253.845 319.98 244.218 320.842 234.57 320.803C200.615 320.803 173.094 310.847 173.094 298.555V256.112C173.094 268.404 200.615 278.36 234.57 278.36C268.525 278.36 296.039 268.404 296.039 256.112Z" fill="white"/>
<path d="M296.039 255.23V256.112C296.039 268.404 268.525 278.36 234.57 278.36C200.615 278.36 173.094 268.404 173.094 256.112V213.969C173.094 226.261 200.615 236.209 234.57 236.209C268.525 236.209 296.039 226.261 296.039 213.969V255.23Z" fill="white"/>
<path d="M296.039 171.814V213.969C296.039 226.261 268.525 236.209 234.57 236.209C200.615 236.209 173.094 226.261 173.094 213.969V171.814C173.094 184.098 200.615 194.062 234.57 194.062C268.525 194.062 296.039 184.098 296.039 171.814Z" fill="white"/>
<path d="M234.57 149.562C268.513 149.562 296.039 159.53 296.039 171.814C296.039 184.098 268.513 194.062 234.57 194.062C200.627 194.062 173.094 184.098 173.094 171.814C173.094 159.53 200.615 149.562 234.57 149.562V149.562Z" fill="white"/>
<path d="M3.35881 105.96C2.22751 93.1181 2.98041 80.1822 5.59021 67.5584L5.61362 67.4531C9.34693 50.6005 16.8057 36.4943 27.7911 25.5168C43.0052 10.2949 63.8719 1.96613 89.8139 0.768507C101.509 0.327688 113.216 1.1235 124.748 3.13645L121.99 18.8772C111.593 17.0593 101.033 16.3415 90.4849 16.7355C68.7131 17.7381 51.4003 24.4986 39.0885 36.8181C30.3034 45.5955 24.2919 57.0451 21.2256 70.8548C18.9396 81.9338 18.2842 93.2936 19.2751 104.564L3.35881 105.96Z" fill="white"/>
<path d="M40.3135 216.649C35.3006 207.505 30.7013 198.306 26.6403 189.302L41.2068 182.733C45.1 191.358 49.5082 200.186 54.326 208.968L40.3135 216.649ZM15.3038 160.77C12.4482 152.449 10.0101 143.992 8.00885 135.425L23.574 131.82C25.4583 139.861 27.7443 147.795 30.4243 155.601L15.3038 160.77Z" fill="white"/>
<path d="M123.059 327.454C121.108 325.426 119.177 323.389 117.266 321.349C112.893 316.664 108.668 312.006 104.712 307.5C103.998 306.685 103.284 305.87 102.574 305.051L114.64 294.576C115.331 295.372 116.021 296.164 116.719 296.956C120.57 301.341 124.682 305.878 128.938 310.438C130.798 312.427 132.679 314.409 134.586 316.391L123.059 327.454ZM83.2679 281.578C82.0703 280.037 80.8844 278.496 79.7141 276.951C74.7051 270.358 69.8483 263.668 65.2919 257.044L78.4501 247.982C82.8661 254.395 87.5747 260.887 92.4315 267.284C93.5745 268.786 94.7253 270.284 95.8839 271.778L83.2679 281.578Z" fill="white"/>
<path d="M372.886 463.979C367.951 463.979 362.88 463.73 357.664 463.23C353.989 462.875 350.193 462.392 346.378 461.787L348.875 446.011C352.37 446.561 355.834 447.01 359.185 447.326C372.847 448.636 385.35 448.044 396.366 445.566C410.001 442.492 421.333 436.512 430.048 427.797C447.646 410.203 453.926 382.014 448.215 346.277C445.165 327.247 438.81 306.63 429.322 285.011L443.955 278.59C453.989 301.462 460.734 323.382 463.991 343.753C470.549 384.761 462.719 417.728 441.349 439.098C430.462 449.982 416.511 457.402 399.877 461.155C391.01 463.09 381.96 464.034 372.886 463.979V463.979Z" fill="white"/>
<path d="M422.164 269.707C418.868 263.071 415.244 256.272 411.385 249.5L425.265 241.588C429.276 248.622 433.048 255.694 436.477 262.607L422.164 269.707Z" fill="white"/>
<path d="M392.766 219.684C387.242 211.581 381.425 203.53 375.48 195.755L388.17 186.045C394.295 194.054 400.283 202.34 405.971 210.684L392.766 219.684ZM356.911 172.801C350.545 165.358 343.885 157.989 337.117 150.904L348.676 139.868C355.643 147.163 362.497 154.747 369.055 162.416L356.911 172.801Z" fill="white"/>
<path d="M93.7306 466.897C84.7269 466.901 75.7506 465.977 66.9342 464.147C50.0037 460.422 35.8897 452.963 24.8926 441.97C9.67071 426.752 1.34977 405.881 0.148246 379.935C-0.292574 368.244 0.503241 356.537 2.52009 345.013L18.2569 347.767C16.439 358.163 15.7212 368.72 16.1153 379.264C17.1217 401.036 23.8783 418.357 36.1901 430.672C44.9908 439.477 56.4599 445.481 70.2774 448.519C81.3447 450.809 92.6851 451.469 103.944 450.474L105.34 466.39C101.47 466.73 97.6004 466.897 93.7306 466.897V466.897Z" fill="white"/>
<path d="M134.809 461.74L131.204 446.175C139.24 444.291 147.175 442.005 154.981 439.325L160.146 454.445C151.829 457.301 143.371 459.735 134.809 461.74ZM188.682 443.113L182.113 428.546C190.738 424.661 199.566 420.249 208.351 415.431L216.029 429.443C206.884 434.452 197.682 439.056 188.682 443.113Z" fill="white"/>
<path d="M256.428 404.457L247.366 391.299C253.857 386.832 260.348 382.127 266.66 377.317C268.17 376.174 269.668 375.024 271.154 373.865L280.958 386.481C279.417 387.683 277.876 388.868 276.331 390.039C269.824 394.989 263.126 399.846 256.428 404.457V404.457ZM304.434 367.183L293.964 355.113C294.756 354.422 295.551 353.732 296.343 353.037C300.693 349.21 305.234 345.095 309.825 340.815C311.807 338.962 313.789 337.066 315.771 335.167L326.838 346.69C324.805 348.641 322.769 350.576 320.729 352.495C316.012 356.888 311.359 361.109 306.888 365.041C306.065 365.763 305.249 366.476 304.434 367.183V367.183Z" fill="white"/>
<path d="M461.171 123.367L445.387 120.87C445.941 117.375 446.386 113.907 446.705 110.56C448.016 96.906 447.423 84.3993 444.946 73.3905C441.872 59.7446 435.892 48.4082 427.177 39.6932C409.579 22.1034 381.394 15.8227 345.653 21.5338C326.623 24.5805 306.006 30.9353 284.387 40.4227L277.969 25.7977C300.837 15.7642 322.757 9.01924 343.129 5.76186C384.14 -0.799707 417.104 7.0336 438.474 28.4036C449.362 39.2875 456.782 53.2416 460.535 69.8834C463.382 82.5502 464.081 96.75 462.61 112.093C462.259 115.76 461.775 119.556 461.171 123.367V123.367Z" fill="white"/>
<path d="M248.181 58.7732L240.235 44.9128C247.502 40.7465 254.817 36.8337 261.987 33.2721L269.095 47.585C262.205 51.0023 255.172 54.7669 248.181 58.7732Z" fill="white"/>
<path d="M150.288 132.632L139.252 121.069C146.543 114.106 154.134 107.248 161.8 100.69L172.189 112.834C164.741 119.208 157.372 125.864 150.288 132.632ZM195.138 94.2728L185.433 81.5788C193.445 75.4502 201.735 69.4621 210.072 63.7822L219.067 76.9912C210.973 82.5033 202.921 88.3198 195.138 94.2728Z" fill="white"/>
<path d="M327.337 410.831L311.975 415.232L318.747 438.872C299.671 432.837 281.196 425.047 263.563 415.591C239.123 402.53 215.884 387.343 194.105 370.21C177.954 357.563 162.506 344.042 147.826 329.709L136.662 341.139C151.751 355.873 167.632 369.773 184.239 382.779C206.76 400.498 230.798 416.199 256.073 429.705C270.83 437.565 286.13 444.373 301.848 450.076L287.262 454.254L291.658 469.612L332.214 458.003L332.463 457.933C334.511 457.359 336.247 455.994 337.285 454.137C338.326 452.28 338.58 450.084 337.995 448.04L327.337 410.831Z" fill="white"/>
<path d="M142.599 19.0605L150.678 56.8383L166.306 53.499L161.145 29.3632C175.809 34.5633 190.075 40.8245 203.83 48.1039C227.954 60.8369 250.916 75.6609 272.449 92.4042C282.612 100.241 292.84 108.742 302.85 117.667C308.308 122.54 313.898 127.736 319.473 133.123C321.794 135.359 324.22 137.738 326.678 140.196L337.975 128.899C335.447 126.371 332.951 123.917 330.567 121.619C324.852 116.099 319.106 110.759 313.488 105.742C303.194 96.5666 292.672 87.8205 282.241 79.7765C259.978 62.4675 236.236 47.1442 211.297 33.9821C200.978 28.5284 190.379 23.6131 179.546 19.2595L193.629 16.2479L190.285 0.624176L148.731 9.51077C144.628 10.4236 141.912 14.3364 142.498 18.4988C142.525 18.686 142.56 18.8733 142.599 19.0605Z" fill="white"/>
<path d="M128.274 131.778C125.477 134.575 123.168 136.927 120.999 139.178C115.615 144.749 110.275 150.495 105.118 156.261C95.9464 166.551 87.2002 177.073 79.1523 187.512C61.8512 209.775 46.5278 233.513 33.3618 258.452C27.9042 268.771 22.9889 279.366 18.6392 290.199L15.6276 276.116L0 279.46L8.8866 321.014C9.80334 325.114 13.7083 327.825 17.8707 327.247C18.0619 327.22 18.253 327.189 18.4403 327.146L56.222 319.067L52.8788 303.443L28.7429 308.604C33.9391 293.936 40.2042 279.67 47.4875 265.919C60.2205 241.795 75.0445 218.833 91.7839 197.296C99.625 187.13 108.125 176.901 117.039 166.899C122.052 161.297 127.248 155.703 132.499 150.272C134.602 148.084 136.853 145.798 139.576 143.079L128.274 131.778Z" fill="white"/>
<path d="M469 178.095L457.387 137.535L457.316 137.286C456.739 135.242 455.374 133.51 453.517 132.472C451.664 131.438 449.471 131.185 447.427 131.766L410.219 142.412L414.612 157.774L438.252 151.014C432.213 170.086 424.423 188.557 414.97 206.19C401.914 230.63 386.731 253.873 369.593 275.644C356.942 291.799 343.421 307.251 329.093 321.934L340.523 333.099C355.257 318.006 369.153 302.117 382.159 285.514C399.881 262.993 415.583 238.959 429.084 213.684C436.945 198.919 443.752 183.622 449.46 167.901L453.638 182.491L469 178.095Z" fill="white"/>
</g>
<defs>
<clipPath id="clip0">
<rect width="469" height="469" fill="white"/>
</clipPath>
</defs>
</svg>
