<svg width="512" height="512" viewBox="0 0 512 512" fill="none" xmlns="http://www.w3.org/2000/svg">
<path d="M159.173 220.987L126.405 295.385C125.598 297.236 123.569 298.417 121.344 298.417H104.566C102.341 298.417 100.313 297.216 99.5251 295.385L83.9682 259.879C82.4519 256.374 81.0734 253.026 79.7737 249.698C78.3362 253.361 76.8593 256.768 75.3823 260.037L58.9786 295.483C58.1516 297.275 56.143 298.417 53.9571 298.417H37.1793C34.8753 298.417 32.8666 297.177 32.079 295.306L1.41803 220.889C0.827263 219.431 1.06357 217.817 2.08757 216.537C3.11157 215.257 4.74603 214.508 6.51834 214.508H25.4033C27.786 214.508 29.8734 215.867 30.5823 217.836L44.0519 255.646C45.1743 258.836 46.218 261.849 47.183 264.724C48.3645 261.849 49.6445 258.816 51.0033 255.606L67.5842 217.561C68.3916 215.729 70.4002 214.508 72.6254 214.508H88.2217C90.4863 214.508 92.495 215.749 93.3023 217.6L109.017 254.818C110.435 258.166 111.695 261.297 112.857 264.251C113.822 261.455 114.944 258.422 116.224 255.094L130.737 217.718C131.486 215.788 133.553 214.489 135.857 214.489H154.092C155.884 214.489 157.539 215.257 158.563 216.537C159.606 217.876 159.803 219.51 159.173 220.987ZM334.868 220.987L302.1 295.385C301.292 297.236 299.264 298.417 297.059 298.417H280.241C278.016 298.417 276.008 297.216 275.2 295.385L259.663 259.879C258.127 256.374 256.748 253.026 255.449 249.698C254.011 253.361 252.534 256.768 251.057 260.037L234.654 295.483C233.827 297.275 231.838 298.417 229.632 298.417H212.835C210.55 298.417 208.522 297.177 207.734 295.306L177.073 220.889C176.483 219.431 176.719 217.817 177.743 216.537C178.767 215.276 180.421 214.508 182.174 214.508H201.059C203.441 214.508 205.529 215.867 206.238 217.836L219.688 255.646C220.81 258.836 221.854 261.849 222.858 264.724C224.02 261.849 225.28 258.816 226.639 255.606L243.24 217.561C244.027 215.729 246.036 214.508 248.281 214.508H263.877C266.142 214.508 268.17 215.749 268.958 217.6L284.692 254.818C286.09 258.166 287.35 261.297 288.492 264.251C289.497 261.455 290.58 258.422 291.88 255.094L306.393 217.718C307.141 215.788 309.228 214.489 311.532 214.489H329.768C331.579 214.489 333.253 215.257 334.238 216.537C335.281 217.876 335.518 219.51 334.868 220.987ZM510.543 220.987L477.795 295.385C476.968 297.236 474.959 298.417 472.734 298.417H455.936C453.711 298.417 451.683 297.216 450.895 295.385L435.358 259.879C433.822 256.374 432.443 253.026 431.144 249.698C429.706 253.361 428.209 256.768 426.733 260.037L410.329 295.483C409.502 297.275 407.493 298.417 405.307 298.417H388.529C386.225 298.417 384.197 297.177 383.409 295.306L352.749 220.889C352.177 219.431 352.374 217.817 353.398 216.537C354.422 215.257 356.077 214.508 357.849 214.508H376.753C379.136 214.508 381.224 215.867 381.913 217.836L395.382 255.646C396.505 258.836 397.549 261.849 398.533 264.724C399.695 261.849 400.955 258.816 402.314 255.606L418.915 217.561C419.722 215.729 421.731 214.508 423.976 214.508H439.552C441.817 214.508 443.845 215.749 444.633 217.6L460.347 254.818C461.765 258.166 463.045 261.297 464.207 264.251C465.172 261.455 466.294 258.422 467.574 255.094L482.107 217.718C482.836 215.788 484.904 214.489 487.227 214.489H505.462C507.274 214.489 508.928 215.257 509.933 216.537C510.937 217.876 511.173 219.51 510.543 220.987Z" fill="white"/>
<path d="M53.3664 177.231C58.9393 163.092 65.9104 149.642 74.1812 137.118C75.4021 137.354 76.5443 137.846 77.8243 137.846H114.846C110.927 150.331 107.855 163.623 105.197 177.231H145.664C148.717 163.466 152.261 150.134 156.731 137.846H353.379C357.849 150.134 361.394 163.466 364.446 177.231H404.914C402.255 163.623 399.183 150.331 395.264 137.846H432.286C433.566 137.846 434.708 137.354 435.949 137.118C444.18 149.642 451.171 163.092 456.744 177.231H498.511C465.211 74.5157 368.719 0 255.055 0C141.391 0 44.8987 74.5157 11.5793 177.231H53.3664ZM403.259 98.4615H379.865C374.784 87.7686 369.192 77.7846 363.107 68.5489C377.679 76.9772 391.109 87.0203 403.259 98.4615ZM255.055 39.3846C285.598 39.3846 313.797 62.1095 335.045 98.4615H175.065C196.313 62.1095 224.512 39.3846 255.055 39.3846ZM146.964 68.5489C140.899 77.7846 135.306 87.7686 130.226 98.4615H106.851C119.001 87.0203 132.431 76.9772 146.964 68.5489Z" fill="white"/>
<path d="M456.744 334.769C451.171 348.928 444.18 362.338 435.929 374.882C434.708 374.646 433.566 374.154 432.286 374.154H395.245C399.163 361.669 402.235 348.377 404.894 334.769H364.426C361.394 348.534 357.829 361.886 353.359 374.154H156.731C152.261 361.886 148.717 348.534 145.664 334.769H105.216C107.875 348.377 110.947 361.669 114.866 374.154H77.8243C76.5443 374.154 75.4021 374.646 74.1812 374.882C65.9301 362.338 58.9393 348.928 53.3664 334.769H11.5793C44.8987 437.484 141.391 512 255.055 512C368.719 512 465.211 437.484 498.511 334.769H456.744ZM106.851 413.538H130.245C135.326 424.231 140.918 434.235 146.984 443.451C132.431 435.023 119.001 424.98 106.851 413.538ZM255.055 472.615C224.512 472.615 196.313 449.89 175.065 413.538H335.026C313.797 449.89 285.598 472.615 255.055 472.615ZM363.126 443.451C369.211 434.235 374.804 424.231 379.885 413.538H403.279C391.109 424.98 377.679 435.023 363.126 443.451Z" fill="white"/>
</svg>
